<svg width="174" height="91" viewBox="0 0 174 91" fill="none" xmlns="http://www.w3.org/2000/svg">
<path d="M66.1427 56.6005C63.1149 58.727 59.4207 59.1859 56.1369 58.1807V74.2252H64.3828V90.7169H56.1369V82.4711H39.6452V74.2252H47.8911V40.0254C44.6074 41.0306 40.9131 40.5718 37.8851 38.4452C34.5232 36.0842 32.8098 32.2535 32.9972 28.4328C36.5275 26.9596 40.7125 27.2713 44.0744 29.6324C45.7857 30.8343 47.0674 32.418 47.8911 34.1864V1.65341L56.1369 0V52.3417C56.9606 50.5733 58.2423 48.9895 59.9536 47.7877C63.3155 45.4266 67.5005 45.1149 71.0307 46.588C71.2182 50.4088 69.5048 54.2395 66.1427 56.6005ZM23.1537 23.2844C26.4374 24.2896 30.1315 23.8307 33.1595 21.7042C36.5214 19.3431 38.235 15.5125 38.0474 11.6917C34.5171 10.2186 30.3322 10.5303 26.9702 12.8914C25.2589 14.0932 23.9774 15.6768 23.1537 17.4452V6.614L14.9078 8.26741V31.5826C14.0841 29.8141 12.8024 28.2303 11.091 27.0284C7.72909 24.6674 3.54425 24.3557 0.0139045 25.8288C-0.173626 29.6496 1.53994 33.4803 4.90185 35.8413C7.92985 37.9678 11.6241 38.4268 14.9078 37.4215V74.2252H6.66196V90.7169H14.9078V82.4711H31.3994V74.2252H23.1537V23.2844Z" fill="white"/>
<path d="M157.338 50.2012C156.488 49.4415 155.134 49.0615 153.274 49.0615H152.929H148.229V50.0334V51.9222H149.226H152.929H153.274C154.094 51.9222 154.699 52.1105 155.089 52.4872C155.479 52.864 155.674 53.379 155.674 54.0331V54.9096C154.974 54.8098 154.314 54.74 153.694 54.6997C153.074 54.6599 152.354 54.6299 151.535 54.6096C149.855 54.5699 148.531 54.9198 147.561 55.6594C146.591 56.3993 146.107 57.619 146.107 59.3181V61.1775C146.107 62.617 146.591 63.7071 147.561 64.4466C148.531 65.186 149.855 65.5561 151.535 65.5561H158.613V53.56C158.613 52.0806 158.188 50.9612 157.338 50.2012ZM155.674 62.6955H151.565C151.285 62.6955 151 62.666 150.71 62.606C150.42 62.5465 150.15 62.4374 149.901 62.278C149.65 62.1187 149.445 61.8999 149.286 61.6215C149.125 61.3431 149.046 60.9847 149.046 60.5471V59.8878C149.046 59.0326 149.245 58.4309 149.646 58.0828C150.045 57.7346 150.685 57.5602 151.565 57.5602C152.165 57.5602 152.804 57.5856 153.484 57.6352C154.164 57.6854 154.894 57.7604 155.674 57.8602V62.6955ZM119.557 49.0615H119.212H114.512V50.0334V51.9222H115.508H119.212H119.557C120.376 51.9222 120.981 52.1105 121.371 52.4872C121.761 52.864 121.956 53.379 121.956 54.0331V54.9096C121.256 54.8098 120.596 54.74 119.977 54.6997C119.357 54.6599 118.637 54.6299 117.817 54.6096C116.138 54.5699 114.813 54.9198 113.844 55.6594C112.874 56.3993 112.389 57.619 112.389 59.3181V61.1775C112.389 62.617 112.874 63.7071 113.844 64.4466C114.813 65.186 116.138 65.5561 117.817 65.5561H124.895V53.56C124.895 52.0806 124.47 50.9612 123.621 50.2012C122.771 49.4415 121.416 49.0615 119.557 49.0615ZM121.956 62.6955H117.847C117.567 62.6955 117.282 62.666 116.993 62.606C116.703 62.5465 116.433 62.4374 116.183 62.278C115.933 62.1187 115.728 61.8999 115.568 61.6215C115.408 61.3431 115.328 60.9847 115.328 60.5471V59.8878C115.328 59.0326 115.528 58.4309 115.928 58.0828C116.328 57.7346 116.967 57.5602 117.847 57.5602C118.447 57.5602 119.087 57.5856 119.767 57.6352C120.446 57.6854 121.176 57.7604 121.956 57.8602V62.6955ZM106.689 44.5676H93.3826V48.4237C93.3826 50.2607 93.3076 51.9626 93.1577 53.5296C93.0077 55.0966 92.8127 56.5089 92.5728 57.7666C92.3329 59.0244 92.0579 60.1125 91.7481 61.0309C91.4379 61.9492 91.123 62.1964 90.8034 62.6955H89.124V68.1169H92.0466H92.063V65.5561H106.089L106.106 68.1169H109.028V62.6955H106.689V44.5676ZM103.75 62.6955H93.9224C94.422 61.6397 94.8268 60.9057 95.137 59.5707C95.4468 58.2356 95.6918 56.8909 95.8718 55.5356C96.0517 54.1805 96.1717 52.8754 96.2317 51.6201C96.2916 50.3652 96.3216 49.269 96.3216 48.3323V47.4282H103.75V62.6955ZM139.209 49.0615H142.148V63.1568V65.5561H140.829H139.226V64.2375C139.216 64.1333 139.209 64.0244 139.209 63.9067V60.1279H134.231C132.351 60.1279 130.962 59.7183 130.062 58.8983C129.163 58.0787 128.713 56.8393 128.713 55.1795V49.0615H131.652V54.6671C131.652 55.6038 131.881 56.2716 132.342 56.6699C132.801 57.0682 133.431 57.2674 134.231 57.2674H139.209V49.0615Z" fill="white"/>
<path d="M119.677 20.7748C119.097 20.3236 118.407 19.9824 117.607 19.7519C116.807 19.5213 115.938 19.4061 114.998 19.4061C114.118 19.4061 113.293 19.5161 112.524 19.736C111.754 19.9561 111.074 20.301 110.485 20.7706C109.895 21.2406 109.43 21.8503 109.09 22.6001C108.75 23.3498 108.58 24.2546 108.58 25.3141V31.0422C108.58 31.8623 108.715 32.5971 108.985 33.2465C109.255 33.8964 109.64 34.4461 110.14 34.8961C110.639 35.3459 111.244 35.6955 111.954 35.9457C112.664 36.1955 113.449 36.3205 114.308 36.3205H114.953H119.047H120.932V34.9664C120.932 34.9414 120.936 34.9188 120.936 34.8932V33.4599H120.932H114.953H114.308C113.548 33.4599 112.894 33.2135 112.344 32.72C111.794 32.2266 111.519 31.5163 111.519 30.5883V29.7642H119.227C120.066 29.7642 120.661 29.5791 121.011 29.208C121.361 28.837 121.536 28.3003 121.536 27.5983V24.7303C121.536 23.868 121.371 23.1061 121.041 22.4444C120.711 21.7828 120.256 21.2261 119.677 20.7748ZM118.597 26.3071C118.597 26.5461 118.562 26.7049 118.492 26.7846C118.422 26.8643 118.277 26.9036 118.057 26.9036H111.519V25.1884C111.519 24.2942 111.829 23.5835 112.449 23.0567C113.069 22.53 113.919 22.2667 114.998 22.2667C116.178 22.2667 117.072 22.53 117.682 23.0567C118.292 23.5835 118.597 24.2942 118.597 25.1884V26.3071ZM151.056 19.8259H150.711H146.01V20.7978V22.6866H147.007H150.711H151.056C151.875 22.6866 152.48 22.8749 152.87 23.2516C153.26 23.6284 153.455 24.1434 153.455 24.7975V25.674C152.755 25.5742 152.095 25.5044 151.476 25.4642C150.856 25.4243 150.136 25.3943 149.316 25.3741C147.637 25.3343 146.312 25.6842 145.343 26.4238C144.373 27.1637 143.888 28.3834 143.888 30.0825V31.942C143.888 33.3814 144.373 34.4715 145.343 35.211C146.312 35.9504 147.637 36.3205 149.316 36.3205H156.394V24.3244C156.394 22.8451 155.969 21.7256 155.119 20.9656C154.269 20.2059 152.915 19.8259 151.056 19.8259ZM153.455 33.4599H149.346C149.066 33.4599 148.781 33.4304 148.492 33.3704C148.201 33.3109 147.932 33.2018 147.682 33.0424C147.432 32.8831 147.227 32.6643 147.067 32.3859C146.907 32.1075 146.827 31.7491 146.827 31.3115V30.6522C146.827 29.797 147.027 29.1954 147.427 28.8472C147.827 28.499 148.466 28.3246 149.346 28.3246C149.946 28.3246 150.586 28.35 151.266 28.3997C151.945 28.4498 152.675 28.5248 153.455 28.6246V33.4599ZM126.821 19.8259H139.447V36.3069V36.3205L136.508 36.3069V22.6866H129.79V30.6645C129.79 31.6224 129.725 32.4551 129.595 33.1636C129.465 33.8721 129.22 34.4607 128.861 34.9292C128.501 35.3979 127.996 35.7465 127.346 35.9766C126.763 36.1824 126.02 36.2951 125.123 36.3161V36.3205H124.812H124.597V35.3792V33.9214H124.722H124.812C125.352 33.9214 125.757 33.8665 126.027 33.7569C126.296 33.6472 126.491 33.4625 126.611 33.203C126.731 32.9438 126.796 32.6046 126.806 32.1856C126.816 31.7668 126.821 31.248 126.821 30.6294V19.8259ZM166.383 19.8259C164.283 19.8259 162.724 20.2397 161.704 21.0668C160.684 21.8938 160.175 23.0747 160.175 24.6094C160.175 25.1674 160.235 26.1668 160.355 26.685C160.474 27.2034 160.684 27.6766 160.984 28.105C161.284 28.5337 161.679 28.8926 162.169 29.1813C162.659 29.4705 163.264 29.6545 163.983 29.7342L159.935 36.3205H163.344L167.183 30.0641H171.061V35.0839C171.061 35.2025 171.068 35.3123 171.078 35.4172V36.7405H172.68H174V34.3412V19.8259H166.383ZM171.061 27.2035H165.8C164.376 27.2035 163.114 26.528 163.114 25.2089V24.6812C163.114 23.356 164.287 22.6866 165.8 22.6866H171.061V27.2035ZM102.73 24.7444C102.15 24.3244 101.46 24.0245 100.661 23.8445C99.8611 23.6647 98.9914 23.5747 98.0518 23.5747H92.033V18.1926H101.605V16.5248C101.607 16.5091 101.606 16.4917 101.608 16.4759V15.3319H101.605H93.1908H89.124V36.3205H98.0218C98.8812 36.3205 99.706 36.2203 100.496 36.0206C101.286 35.8206 101.985 35.5005 102.595 35.0609C103.205 34.6214 103.69 34.0517 104.05 33.3515C104.41 32.6519 104.59 31.8122 104.59 30.8323V28.8829C104.59 27.9036 104.425 27.0737 104.095 26.3938C103.765 25.7143 103.31 25.1642 102.73 24.7444ZM101.651 30.2154C101.651 30.6521 101.576 31.0691 101.426 31.466C101.276 31.863 101.051 32.2102 100.751 32.5077C100.451 32.8053 100.071 33.0382 99.6113 33.2068C99.1511 33.3755 98.6113 33.4599 97.9919 33.4599H92.033V26.4354H98.0218C98.6816 26.4354 99.2411 26.5248 99.7012 26.7033C100.161 26.8819 100.536 27.1199 100.826 27.4175C101.115 27.7154 101.325 28.0673 101.456 28.4743C101.586 28.8809 101.651 29.3026 101.651 29.7394V30.2154Z" fill="white"/>
<path d="M92.338 87.4149H91.0192V90.7342H89.124V82.4954H91.0192V85.8263H92.3842L94.5499 82.4954H96.562L93.8674 86.4734L96.645 90.7342H94.4792L92.338 87.4149Z" fill="white"/>
<path d="M109.239 82.4954L105.731 89.0157C105.394 89.6432 104.989 90.1183 104.513 90.4399C104.038 90.7614 103.523 90.9225 102.966 90.9225C102.535 90.9225 102.087 90.828 101.624 90.6397L102.083 89.1925C102.412 89.2944 102.687 89.3454 102.907 89.3454C103.142 89.3454 103.354 89.2883 103.542 89.1748C103.731 89.0606 103.904 88.8825 104.06 88.6392L104.131 88.5447L100.883 82.4954H102.918L105.108 86.9207L107.368 82.4954H109.239Z" fill="white"/>
<path d="M119.731 82.8598C120.268 83.1031 120.683 83.4485 120.974 83.8957C121.264 84.343 121.409 84.8726 121.409 85.485C121.409 86.0893 121.264 86.6168 120.974 87.0675C120.683 87.5189 120.268 87.8642 119.731 88.1035C119.194 88.3428 118.561 88.4624 117.831 88.4624H116.171V90.7342H114.265V82.4954H117.831C118.561 82.4954 119.194 82.6171 119.731 82.8598ZM119.031 86.538C119.329 86.2912 119.478 85.9398 119.478 85.485C119.478 85.0221 119.329 84.6666 119.031 84.4198C118.733 84.1724 118.297 84.0487 117.725 84.0487H116.171V86.9091H117.725C118.297 86.9091 118.733 86.7854 119.031 86.538Z" fill="white"/>
<path d="M128.523 90.3223C127.837 89.9531 127.3 89.4454 126.911 88.7982C126.524 88.1504 126.329 87.4231 126.329 86.6148C126.329 85.8066 126.524 85.0785 126.911 84.4314C127.3 83.7843 127.837 83.2758 128.523 82.9074C129.21 82.5383 129.981 82.354 130.836 82.354C131.691 82.354 132.461 82.5383 133.143 82.9074C133.826 83.2758 134.364 83.7843 134.755 84.4314C135.148 85.0785 135.344 85.8066 135.344 86.6148C135.344 87.4231 135.148 88.1504 134.755 88.7982C134.364 89.4454 133.826 89.9531 133.143 90.3223C132.461 90.6907 131.691 90.8756 130.836 90.8756C129.981 90.8756 129.21 90.6907 128.523 90.3223ZM132.155 88.9158C132.548 88.6922 132.855 88.3802 133.079 87.9798C133.302 87.5794 133.414 87.1246 133.414 86.6148C133.414 86.105 133.302 85.6495 133.079 85.2492C132.855 84.8495 132.548 84.5374 132.155 84.3138C131.762 84.0902 131.323 83.978 130.836 83.978C130.351 83.978 129.91 84.0902 129.519 84.3138C129.126 84.5374 128.818 84.8495 128.594 85.2492C128.371 85.6495 128.26 86.105 128.26 86.6148C128.26 87.1246 128.371 87.5794 128.594 87.9798C128.818 88.3802 129.126 88.6922 129.519 88.9158C129.91 89.1395 130.351 89.2509 130.836 89.2509C131.323 89.2509 131.762 89.1395 132.155 88.9158Z" fill="white"/>
<path d="M146.403 82.8598C146.94 83.1031 147.353 83.4485 147.644 83.8957C147.933 84.343 148.079 84.8726 148.079 85.485C148.079 86.0893 147.933 86.6168 147.644 87.0675C147.353 87.5189 146.94 87.8642 146.403 88.1035C145.864 88.3428 145.231 88.4624 144.502 88.4624H142.842V90.7342H140.935V82.4954H144.502C145.231 82.4954 145.864 82.6171 146.403 82.8598ZM145.702 86.538C146 86.2912 146.15 85.9398 146.15 85.485C146.15 85.0221 146 84.6666 145.702 84.4198C145.403 84.1724 144.968 84.0487 144.396 84.0487H142.842V86.9091H144.396C144.968 86.9091 145.403 86.7854 145.702 86.538Z" fill="white"/>
<path d="M159.531 84.0487H156.895V90.7342H155.012V84.0487H152.387V82.4954H159.531V84.0487Z" fill="white"/>
</svg>
