<svg width="45" height="45" viewBox="0 0 45 45" fill="none" xmlns="http://www.w3.org/2000/svg" class="phone-img-v middle">
<path d="M39.1413 9.61797C37.3204 25.0661 25.0661 37.3204 9.61797 39.1413C7.42402 39.3999 5.625 37.5841 5.625 35.375V27.7188C5.625 27.1665 6.07298 26.7212 6.62466 26.6955C8.98285 26.5855 11.2398 26.0882 13.3334 25.2659L16.5382 28.4706C21.7505 25.9762 25.9762 21.7506 28.4706 16.5382L25.2659 13.3335C26.0882 11.2398 26.5855 8.98285 26.6955 6.62466C26.7212 6.07298 27.1665 5.625 27.7187 5.625H35.375C37.5841 5.625 39.3999 7.42402 39.1413 9.61797Z" stroke="white" stroke-width="2" stroke-linecap="round" stroke-linejoin="round"/>
<path d="M18.375 12.225C17.5673 12.225 16.7675 12.3841 16.0212 12.6932C15.275 13.0023 14.597 13.4554 14.0258 14.0265C13.4547 14.5976 13.0016 15.2757 12.6925 16.0219C12.3834 16.7682 12.2243 17.568 12.2243 18.3757" stroke="white" stroke-width="1.5" stroke-linecap="round" stroke-linejoin="round"/>
<path d="M16.875 6.00189C15.4471 6.00189 14.0333 6.28313 12.7141 6.82955C11.3949 7.37596 10.1963 8.17686 9.18666 9.18651C8.17701 10.1962 7.37611 11.3948 6.8297 12.7139C6.28328 14.0331 6.00204 15.447 6.00204 16.8749" stroke="white" stroke-width="1.5" stroke-linecap="round" stroke-linejoin="round"/>
</svg>
