<svg width="15" height="15" viewBox="0 0 15 15" fill="none" xmlns="http://www.w3.org/2000/svg">
<path d="M12.85 3.29058C12.2979 7.97485 8.58208 11.6907 3.8978 12.2428C3.23254 12.3212 2.68703 11.7706 2.68703 11.1008V8.7792C2.68703 8.61173 2.82287 8.47672 2.99015 8.46892C3.70521 8.43555 4.38959 8.28478 5.02443 8.03543L5.99619 9.00718C7.57671 8.25082 8.85804 6.96949 9.61441 5.38897L8.64265 4.41721C8.892 3.78237 9.04278 3.09799 9.07614 2.38293C9.08395 2.21564 9.21896 2.0798 9.38642 2.0798H11.708C12.3779 2.0798 12.9284 2.62531 12.85 3.29058Z" stroke="white" stroke-width="0.606452" stroke-linecap="round" stroke-linejoin="round"/>
<path d="M6.55273 4.08109C6.30781 4.08109 6.06529 4.12933 5.83901 4.22305C5.61274 4.31678 5.40713 4.45416 5.23395 4.62734C5.06076 4.80053 4.92339 5.00613 4.82966 5.23241C4.73593 5.45869 4.68769 5.70121 4.68769 5.94613" stroke="white" stroke-width="0.454839" stroke-linecap="round" stroke-linejoin="round"/>
<path d="M6.09766 2.19409C5.66469 2.19409 5.23597 2.27937 4.83596 2.44506C4.43596 2.61075 4.0725 2.8536 3.76635 3.15975C3.4602 3.4659 3.21735 3.82935 3.05166 4.22936C2.88597 4.62937 2.80069 5.05809 2.80069 5.49105" stroke="white" stroke-width="0.454839" stroke-linecap="round" stroke-linejoin="round"/>
</svg>
