<svg width="71" height="92" viewBox="0 0 71 92" fill="none" xmlns="http://www.w3.org/2000/svg">
<path d="M8.21024 53.6116C7.87123 55.0629 7.69112 56.5461 7.69112 58.0504C7.69112 68.6972 16.3463 77.3524 26.9931 77.3524C29.1755 77.3524 31.3366 76.9816 33.3812 76.2612V86.8339H17.7871C16.6218 86.8339 15.6683 87.7874 15.6683 88.9527C15.6683 90.118 16.6218 91.0714 17.7871 91.0714H53.2023C54.3676 91.0714 55.3211 90.118 55.3211 88.9527C55.3211 87.7874 54.3676 86.8339 53.2023 86.8339H37.6294V72.9454C37.6294 72.9348 37.6294 72.9348 37.6294 72.9242V58.7178L44.5048 54.7557C45.5218 54.1731 45.8714 52.8806 45.2781 51.8636C44.6955 50.8466 43.403 50.497 42.386 51.0903L37.6294 53.8341V46.9587C37.6294 45.7933 36.6759 44.8399 35.5106 44.8399C34.3453 44.8399 33.3918 45.7933 33.3918 46.9587V60.0527L28.6352 57.3088C27.6182 56.7262 26.3257 57.0758 25.743 58.0822C25.1604 59.0992 25.51 60.3917 26.5164 60.9743L33.3918 64.9364V71.6953C31.4002 72.6276 29.2179 73.1149 27.0037 73.1149C18.6982 73.1149 11.9393 66.356 11.9393 58.0504C11.9393 56.3872 12.2147 54.7451 12.7444 53.1878C13.1046 52.139 12.5855 50.9843 11.5685 50.55C7.11906 48.6537 4.24812 44.3102 4.24812 39.4794C4.24812 33.8117 8.27379 28.8538 13.8144 27.7096C14.9373 27.4766 15.6683 26.396 15.467 25.2624C15.3822 24.7539 15.3293 24.2348 15.3293 23.7051C15.3293 18.8214 19.302 14.8381 24.1964 14.8381C25.0545 14.8381 25.902 14.9652 26.7177 15.1983C27.2792 15.3678 27.883 15.2936 28.3915 14.997C28.9 14.7004 29.2602 14.2025 29.3874 13.6304C29.9382 11.1726 31.326 8.93732 33.2965 7.33765C35.3199 5.6956 37.7777 4.8269 40.3944 4.8269C46.613 4.8269 51.6768 9.89076 51.6768 16.1093C51.6768 17.6455 51.3696 19.1392 50.7763 20.5376C50.4585 21.2686 50.5857 22.1161 51.1048 22.7305C51.6133 23.345 52.429 23.6098 53.2023 23.4297C53.8591 23.2814 54.5372 23.1966 55.2152 23.1966C60.0989 23.1966 64.0822 27.1693 64.0822 32.0637C64.0822 34.4791 63.1288 36.7462 61.3808 38.4306C60.9676 38.8332 60.7346 39.3841 60.7346 39.9667C60.7346 40.5494 60.9782 41.1002 61.402 41.4922C64.8556 44.7657 66.7625 49.1834 66.7625 53.94C66.7625 63.3791 59.0819 71.0597 49.6428 71.0597C47.5346 71.0597 45.4794 70.6783 43.5407 69.9367C42.4495 69.5236 41.2207 70.0638 40.8075 71.155C40.3944 72.2462 40.9346 73.4751 42.0258 73.8882C44.4624 74.8205 47.0261 75.2866 49.6428 75.2866C61.4231 75.2866 71 65.7098 71 53.9294C71 50.9419 70.3961 48.0498 69.199 45.3378C68.3198 43.3461 67.1544 41.5134 65.7348 39.882C67.4193 37.6361 68.3198 34.924 68.3198 32.0637C68.3198 24.987 62.6732 19.1922 55.6495 18.9697C55.819 18.0374 55.9144 17.0734 55.9144 16.1093C55.9144 7.54952 48.9542 0.589355 40.3944 0.589355C36.8454 0.589355 33.3812 1.81825 30.6268 4.05355C28.4657 5.81213 26.813 8.12158 25.849 10.7171C25.3087 10.6535 24.7579 10.6111 24.1964 10.6111C16.9714 10.6111 11.0918 16.4907 11.0918 23.7157C11.0918 23.8323 11.0918 23.9488 11.0918 24.0653C8.22082 25.0294 5.64651 26.7985 3.69724 29.1504C1.31363 32.0531 0 35.7186 0 39.4794C0.0105939 45.3802 3.17816 50.7407 8.21024 53.6116Z" fill="#D0BDAE"/>
</svg>
