<svg width="59" height="108" viewBox="0 0 59 108" fill="none" xmlns="http://www.w3.org/2000/svg">
<path d="M6.14113 80.6316L26.7167 91.7233V102.287H8.22634C6.84458 102.287 5.71406 103.418 5.71406 104.8C5.71406 106.181 6.84458 107.312 8.22634 107.312H50.2191C51.6008 107.312 52.7314 106.181 52.7314 104.8C52.7314 103.418 51.6008 102.287 50.2191 102.287H31.7413V90.2285C31.7413 90.216 31.7413 90.216 31.7413 90.2034V70.1931L39.8936 65.4951C41.0995 64.8043 41.514 63.2718 40.8106 62.0659C40.1197 60.86 38.5872 60.4454 37.3813 61.1489L31.7413 64.4023V56.2499C31.7413 54.8682 30.6107 53.7377 29.229 53.7377C27.8472 53.7377 26.7167 54.8682 26.7167 56.2499V71.7758L21.0766 68.5224C19.8707 67.8315 18.3383 68.2461 17.6474 69.4394C16.9565 70.6453 17.371 72.1778 18.5644 72.8687L26.7167 77.5666V86.0204L8.5278 76.21C5.63868 74.6524 4.30717 71.1478 5.4377 68.0576L28.2994 5.67775C28.5004 5.11249 28.9652 5.02456 29.229 5.02456C29.4928 5.02456 29.945 5.11249 30.1585 5.67775L53.0203 68.0576C54.1508 71.1478 52.8193 74.6524 49.9302 76.21L35.9242 83.7594C34.7058 84.4126 34.241 85.9451 34.9067 87.1635C35.5599 88.382 37.0924 88.8468 38.3109 88.181L52.3168 80.6316C54.7914 79.3001 56.7008 77.1144 57.6931 74.4891C58.6855 71.8638 58.7106 68.9621 57.7434 66.3242L34.8816 3.94428C34.0023 1.54505 31.7915 0 29.229 0C26.6665 0 24.4557 1.54505 23.5764 3.94428L0.714616 66.3242C-0.252612 68.9621 -0.240048 71.8638 0.764864 74.4891C1.75721 77.1144 3.66654 79.3001 6.14113 80.6316Z" fill="#D0BDAE"/>
</svg>
